<svg xmlns="http://www.w3.org/2000/svg" viewBox="0 0 246.04 220.45"><defs><style>.cls-1{fill:#fffcf1;}.cls-2{fill:#3aaa35;}.cls-3{fill:#e2071a;}.cls-4{fill:#fffdf1;}</style></defs><g id="Lag_2" data-name="Lag 2"><g id="Lag_2-2" data-name="Lag 2"><path class="cls-1" d="M42.73,0h186.6a0,0,0,0,1,0,0V216.54a3.91,3.91,0,0,1-3.91,3.91H46.64a3.91,3.91,0,0,1-3.91-3.91V0A0,0,0,0,1,42.73,0Z"/><path class="cls-2" d="M223.52,216.94v.83a.5.5,0,0,1-.5.49H49.45a.49.49,0,0,1-.5-.49v-.83a.5.5,0,0,1,.5-.5c29.12,0,57.44-2.23,86.58-2.23,29.94,0,57.05,2.21,87,2.23A.5.5,0,0,1,223.52,216.94Z"/><path class="cls-2" d="M44.9,122v91a.49.49,0,0,0,.49.49h.84a.5.5,0,0,0,.5-.48L48,121.3Z"/><path class="cls-2" d="M48.54,42V0H44.9V47.92A45,45,0,0,1,48.54,42Z"/><path class="cls-2" d="M227.15,48.66V0h-3.63V47.37A30.39,30.39,0,0,1,227.15,48.66Z"/><path class="cls-2" d="M224.05,119.85,225.32,213a.5.5,0,0,0,.5.48h.84a.49.49,0,0,0,.49-.49V118.29A28,28,0,0,1,224.05,119.85Z"/><path class="cls-2" d="M15.53,165.79a2.82,2.82,0,0,1-1.22-.31l-.31-.15a21.36,21.36,0,0,1-3.41-1.94l-.08-.06-1.77-1.79L8.28,161c-3-3.78-4.6-5.87-6.44-12.21a14.22,14.22,0,0,1-.13-7.09,9,9,0,0,1,.34-.91c.08-.17.16-.31.22-.42l7-15.32a1,1,0,0,0,0-.82,1,1,0,0,0-.59-.53c-3.32-1.11-5.74-4.43-6.63-5.81a3.41,3.41,0,0,1-.51-1.36,40.76,40.76,0,0,1-.06-9.87l0-.29a3.38,3.38,0,0,1,3.06-2.94c2.42-.21,4.89-.36,7.33-.45,2.13-.09,4.29-.13,6.42-.13h1.18a.9.9,0,0,0,.83-.51L43.44,53.74a3.42,3.42,0,0,1,.14-.36c5.74-11.43,14.54-17.13,16.59-18l.23-.09c1-.33,2-.63,3-.88,8.07-2,12.08-2.7,18.17-3.76l4.74-.85a6.3,6.3,0,0,1,1.12-.11,3.38,3.38,0,0,1,2.19.7c1.17.93,1.56,2.59,1.18,5.07-.09.59-8.91,59.37-8.84,81a7.36,7.36,0,0,0,.45,2l.16.18.2-.31a110.83,110.83,0,0,0,7.46-13.13,59.42,59.42,0,0,0,4.42-13.8c.11-.59.22-1.18.34-1.79a52,52,0,0,0,1.11-8.25,115.85,115.85,0,0,0,.13-11.79l0-.78.67-.38c.55-.31,5.52-3.07,10.46-3.07l.74,0a12,12,0,0,1,9.1,4.56.94.94,0,0,0,.69.36h.14a.66.66,0,0,0,.44-.14c1.94-1.63,8.76-7,15.4-7.89a13.76,13.76,0,0,1,1.81-.12,14.53,14.53,0,0,1,9.73,4,1,1,0,0,0,.64.25.94.94,0,0,0,.65-.26,35,35,0,0,1,6.46-5.4,21.12,21.12,0,0,1,9.23-2.93c.62,0,1.2,0,1.81,0a51.77,51.77,0,0,1,6.13.46c9,1,8.18,12.45,7.77,17.93l0,.21-.54,3.45,0,.06c-1.63,6.78-3.7,22.43-2.34,24.94,2.48-1.25,8.12-13.44,12.22-24.83v0c.19-.91,2.17-9.8,5.59-15.53,4.41-7.4,9.09-11.35,12.25-13.36a17.24,17.24,0,0,1,9.27-2.66c.43,0,.85,0,1.28,0,4.6.33,11.24,1.55,16.79,5.52,9.15,6.53,10.58,12,12.08,24.73,1.48,12.57-4.95,24-5.59,25.09-.59,1.32-7.15,15.1-26.91,16.22-.59,0-1.17,0-1.73,0h0c-15.74,0-20.26-12.68-21.38-17.28L182,115.31l-.16.25c-2.06,3.13-9.52,13.34-18.93,13.34a13,13,0,0,1-3-.37c-4.53-1.1-7.32-4.73-8.08-10.49a22,22,0,0,1,.25-6.49l.42-3.21c1-7.57,3.37-25.28.65-28.38a.56.56,0,0,0-.46-.25,1.57,1.57,0,0,0-.57.14c-6,2.59-9.43,32.06-9.91,47.26a3.18,3.18,0,0,1-1.3,2.49c-1.51,1.11-5.14,3.17-12.55,4.54a7.94,7.94,0,0,1-1.5.15,5.4,5.4,0,0,1-4-1.6c-2.59-2.6-2.76-7.7-2.72-12.7v-.12c.24-1.49.53-4.08.81-6.58s.56-5.06.79-6.52a39.76,39.76,0,0,1,.52-4.18c.66-4.44,2-13.67.17-15.85a.84.84,0,0,0-.7-.33h-.12c-5.47.4-9.91,24.49-11.47,48.07a3.16,3.16,0,0,1-1.27,2.34c-2.09,1.56-7.49,5.22-12.38,5.54h-.59c-5.29,0-7.46-4.63-8-6a3.17,3.17,0,0,1-.21-1.15v-.09l1.33-9.23c-.69,1-2.42,3.35-4.27,5.57-5.89,7-12,14.28-20.1,14.79-.27,0-.64,0-1.08,0a11.5,11.5,0,0,1-6.13-1.65A12.06,12.06,0,0,1,54.69,142a9.39,9.39,0,0,1-2-6.06l.46-16.51a1,1,0,0,0-.28-.7,1,1,0,0,0-.69-.3l-.22,0L37.05,121.9a1,1,0,0,0-.66.54L22.53,152.93l-5.31,11.76A1.81,1.81,0,0,1,15.53,165.79ZM217.71,69.25a3.85,3.85,0,0,0-2.91,1.32A25.66,25.66,0,0,0,211.72,75c-3.12,5.71-3.1,11-3.08,14.56,0,4.56,0,7.86,2.35,10.52.59.68,2.68,2.87,4.92,2.87a3.15,3.15,0,0,0,.53,0c2.78-.46,4.16-2.82,5.61-6.74A35.94,35.94,0,0,0,224,83c0-4.56-.07-8.49-1.85-10.93A9.23,9.23,0,0,0,220,70,3.8,3.8,0,0,0,217.71,69.25ZM57,97.88,60,72.75,47.48,97.88Z"/><path class="cls-1" d="M87.38,30.91a2.21,2.21,0,0,1,1.41.43c1,.76.95,2.41.72,3.9,0,0-8.92,59.21-8.85,81.17a9.59,9.59,0,0,0,.6,2.6,2.27,2.27,0,0,0,1.7,1h0a1.92,1.92,0,0,0,.28-.29,1.53,1.53,0,0,0,.1-.17,121.32,121.32,0,0,0,8-14,60.73,60.73,0,0,0,4.51-14.11A67.76,67.76,0,0,0,97.3,81.34a118.13,118.13,0,0,0,.13-11.93s5-2.91,9.84-2.91l.67,0a10.86,10.86,0,0,1,8.18,4.08,2.2,2.2,0,0,0,1.6.84H118a1.86,1.86,0,0,0,1.21-.44c1.92-1.61,8.46-6.76,14.76-7.6a12.64,12.64,0,0,1,10.53,3.52,2.22,2.22,0,0,0,1.48.57,2.18,2.18,0,0,0,1.52-.62,34.71,34.71,0,0,1,6.21-5.2,19.88,19.88,0,0,1,8.69-2.77c.59,0,1.15,0,1.73,0a52.66,52.66,0,0,1,6,.45c7.88.91,7.06,11.29,6.66,16.68v0l-.54,3.41h0C175,84.61,171.45,106,174.91,106a1,1,0,0,0,.29,0c4.48-1.33,12.84-24.44,13.28-25.68l0-.1c.17-.76,2.13-9.65,5.46-15.24,4.15-7,8.53-10.83,11.85-12.94a16,16,0,0,1,8.6-2.47c.4,0,.79,0,1.19,0,4.19.3,10.75,1.42,16.16,5.28,8.7,6.22,10.07,11.19,11.56,23.87s-5.47,24.37-5.47,24.37S231.77,117.5,212,118.61c-.57,0-1.12,0-1.66,0-18.24,0-20.47-17.82-20.47-17.82l-.46,0h-.12a1.2,1.2,0,0,0-1,.62L181,114.68l-.09.16c-.68,1-8.34,12.81-17.92,12.81a11.77,11.77,0,0,1-2.73-.33c-5-1.22-6.66-5.77-7.14-9.44-.3-2.29-.09-3.56.34-6.86,1.23-9.58,4.77-32.56-.72-32.56a2.62,2.62,0,0,0-1.06.25c-8.12,3.47-10.46,41.81-10.67,48.36a2,2,0,0,1-.79,1.52c-1.38,1-4.82,3-12,4.32a6.44,6.44,0,0,1-1.27.13c-5.4,0-5.5-7.55-5.45-13v0c.46-2.84,1.14-10.24,1.6-13.08v0c0-3.13,4.43-21.71-1.26-21.71h-.21c-9,.67-12.19,42.64-12.63,49.24a1.88,1.88,0,0,1-.77,1.42c-1.87,1.39-7.12,5-11.71,5.29h-.51c-4.49,0-6.35-4-6.83-5.24a2.12,2.12,0,0,1-.12-.71l2-14a.21.21,0,0,0-.2-.24.19.19,0,0,0-.17.1c-.75,1.2-2.07,3.33-2.28,3.63,0,0-2.18,3.13-4.51,5.91C78,137.64,72.21,144.5,64.61,145c-.25,0-.59,0-1,0a10.38,10.38,0,0,1-5.48-1.46,10.87,10.87,0,0,1-2.45-2.3A8.05,8.05,0,0,1,54,136l.45-16.51a2.2,2.2,0,0,0-2.71-2.23l-14.93,3.41a2.22,2.22,0,0,0-1.53,1.25L21.39,152.41l-4.48,9.94-.83,1.82a.56.56,0,0,1-.55.37,1.52,1.52,0,0,1-.67-.19,21.76,21.76,0,0,1-3.53-2l-1.65-1.67C6.45,156.57,4.9,154.78,3,148.39A13.11,13.11,0,0,1,2.92,142a5.16,5.16,0,0,1,.26-.73c.08-.16.15-.28.2-.37l7-15.38a2.19,2.19,0,0,0-1.3-3c-3-1-5.25-4.17-6-5.31a2,2,0,0,1-.32-.84,39.47,39.47,0,0,1-.06-9.57l0-.28a2.14,2.14,0,0,1,1.93-1.85c2.32-.19,4.75-.35,7.27-.45q3.28-.12,6.38-.12h1.18a2.14,2.14,0,0,0,1.95-1.23c3.55-7.46,21.9-46.08,23.09-48.6A2.18,2.18,0,0,1,44.7,54c5.78-11.53,14.56-16.83,16-17.45l.14-.06c.93-.32,1.88-.61,2.84-.84,9.93-2.46,13.72-3,22.83-4.6a5.73,5.73,0,0,1,.9-.09M46,99.13H57.85a.33.33,0,0,0,.33-.29l3.63-31.19a.32.32,0,0,0-.33-.37.34.34,0,0,0-.29.18L45.7,98.65a.33.33,0,0,0,.3.48m169.91,5.05a4.49,4.49,0,0,0,.73-.06c3.52-.58,5.1-3.52,6.58-7.54a37.26,37.26,0,0,0,2-13.55c0-5-.11-8.94-2.09-11.66A10.77,10.77,0,0,0,220.73,69a5,5,0,0,0-3-1,5.1,5.1,0,0,0-3.85,1.75,26,26,0,0,0-3.23,4.63c-3.22,5.87-3.26,11.27-3.24,15.16,0,4.7,0,8.33,2.66,11.34.34.39,2.87,3.3,5.86,3.3M87.38,28.41h0a8.17,8.17,0,0,0-1.34.13l-4.73.84c-6.11,1.08-10.15,1.79-18.26,3.79-1,.26-2.07.56-3.06.91a2.6,2.6,0,0,0-.32.13c-.11,0-10.4,5-17.21,18.61a2.59,2.59,0,0,0-.18.45l-4.29,9L19.34,101.55h-1c-2.15,0-4.33,0-6.48.13-2.46.09-4.94.25-7.38.45a4.65,4.65,0,0,0-4.2,4l0,.31a42.13,42.13,0,0,0,.06,10.16,4.47,4.47,0,0,0,.7,1.89C2,120,4.5,123.41,8,124.74l-6.88,15a4.6,4.6,0,0,0-.23.45,8.3,8.3,0,0,0-.41,1.1,15.06,15.06,0,0,0,.15,7.77h0c1.91,6.57,3.6,8.72,6.66,12.63l.41.53.09.11.1.11.82.82.83.85.14.14.16.11a21.54,21.54,0,0,0,3.61,2.06l.3.15a4,4,0,0,0,1.77.44,3.07,3.07,0,0,0,2.83-1.84l.82-1.82,1.59-3.52,2.9-6.42,13.8-30.35,14.45-3.3-.45,16.15a10.62,10.62,0,0,0,2.24,6.86,13.41,13.41,0,0,0,3.11,2.88,12.81,12.81,0,0,0,6.79,1.83c.45,0,.84,0,1.15,0,8.67-.54,14.93-8,21-15.24.48-.57.94-1.14,1.38-1.7l-.62,4.3,0,.17v.18a4.27,4.27,0,0,0,.29,1.59c.61,1.61,3.07,6.86,9.16,6.86.22,0,.44,0,.67,0,5.22-.34,10.86-4.15,13.05-5.78a4.42,4.42,0,0,0,1.77-3.26c.22-3.38,1.1-15.3,3-26.58,3.07-17.74,6.44-20,7.14-20.29.2.41.67,1.74.52,5.36-.14,3.1-.66,6.56-1.08,9.35-.32,2.16-.5,3.41-.53,4.26-.23,1.5-.5,3.92-.79,6.49s-.56,5-.78,6.41V120c0,5.26.16,10.65,3.08,13.59a6.67,6.67,0,0,0,4.87,2,9.64,9.64,0,0,0,1.73-.17c7.65-1.42,11.47-3.59,13.06-4.77a4.4,4.4,0,0,0,1.81-3.45c.1-3.1.74-14.35,2.34-25.05,2.55-17,5.62-20.34,6.6-21,.36.79,1,3.27.65,10.27-.31,5.65-1.16,12.09-1.79,16.79l-.33,2.52-.09.68a22.81,22.81,0,0,0-.25,6.82c.82,6.23,4,10.33,9,11.55a14.36,14.36,0,0,0,3.32.4c10,0,17.83-10.64,20-13.9l0,0,0-.08,0-.08,0-.07,0,0,0,0,5.44-9.91c2.5,6.88,8.87,15.18,21.75,15.18.59,0,1.19,0,1.8,0,20.16-1.14,27.14-15.11,28-16.9.84-1.46,7.22-13,5.72-25.8s-3.08-18.82-12.59-25.61c-5.79-4.13-12.67-5.41-17.43-5.75-.46,0-.92,0-1.37,0a18.46,18.46,0,0,0-9.94,2.86c-3.27,2.08-8.12,6.16-12.66,13.77-3.4,5.72-5.41,14.44-5.73,15.88-3.55,9.86-7.65,18.79-10.18,22.42-.18-5.16,1.48-16.72,2.74-21.91v-.21l.54-3.41v-.31c.4-5.41,1.34-18.08-8.87-19.26a52.28,52.28,0,0,0-6.28-.47c-.6,0-1.2,0-1.88,0a22.35,22.35,0,0,0-9.77,3.1A34.35,34.35,0,0,0,146,64.89a15.7,15.7,0,0,0-10.36-4.09,14.5,14.5,0,0,0-2,.14c-6.52.86-12.94,5.6-15.71,7.89a13.3,13.3,0,0,0-9.83-4.8q-.4,0-.81,0a24.11,24.11,0,0,0-9.92,2.63l-2.64-1.2.23,4.11s.25,4.87-.13,11.66a54.29,54.29,0,0,1-1.09,8.08c-.12.61-.24,1.21-.35,1.81a58.35,58.35,0,0,1-4.32,13.5,99,99,0,0,1-5.89,10.63c.24-22.36,8.74-79,8.83-79.61.44-2.91-.11-5-1.64-6.23a4.69,4.69,0,0,0-3-1Zm128.53,73.27c-1.36,0-3-1.31-4-2.44-1.92-2.21-2-4.85-2-9.71,0-3.39,0-8.53,2.93-14a23.71,23.71,0,0,1,2.93-4.19,2.57,2.57,0,0,1,2-.89,2.62,2.62,0,0,1,1.54.5,8.54,8.54,0,0,1,1.85,1.85c1.54,2.11,1.58,5.86,1.61,10.2a34.5,34.5,0,0,1-1.84,12.66c-1.51,4.12-2.68,5.62-4.63,6l-.33,0ZM49.5,96.63l8.39-16.9-2,16.9Z"/><path class="cls-2" d="M117.44,191.44l-.16-.05-.09-.74.09-.09a17.51,17.51,0,0,0,2.09-.76c1.12-.47,1.84-.79,2.15-1l.24.09c-.1,2.74-.15,4.32-.15,4.73V197c0,1.33,0,2.34,0,3a1.64,1.64,0,0,0,.15.76.65.65,0,0,0,.36.22,10.35,10.35,0,0,0,1.56.13v.54l-2.85-.07-3,.07v-.54c.91-.06,1.43-.1,1.57-.13a.8.8,0,0,0,.32-.15.58.58,0,0,0,.15-.28A10.82,10.82,0,0,0,120,199q.06-1.32.06-2v-3.54c0-1.45,0-2.35,0-2.72a.53.53,0,0,0-.06-.31.17.17,0,0,0-.1,0,1.86,1.86,0,0,0-.42.14C118.44,191,117.77,191.27,117.44,191.44Z"/><path class="cls-2" d="M128.39,201.68v-.17a8.34,8.34,0,0,0,2.85-1.22,6,6,0,0,0,2-2.29,7.42,7.42,0,0,0,.72-2.64,10.81,10.81,0,0,0-1,.76,4,4,0,0,1-.5.4,2.46,2.46,0,0,1-.59.27,3.5,3.5,0,0,1-.94.13,3.1,3.1,0,0,1-2.36-1,3.67,3.67,0,0,1-.93-2.66,4.31,4.31,0,0,1,1.16-3.12,3.92,3.92,0,0,1,2.92-1.19,3.77,3.77,0,0,1,2,.56,3.7,3.7,0,0,1,1.4,1.61,6.4,6.4,0,0,1,.51,2.75,8.25,8.25,0,0,1-.77,3.66,8,8,0,0,1-2.74,3.14A7.74,7.74,0,0,1,129,202Zm.83-9a4.46,4.46,0,0,0,.26,1.52,2.34,2.34,0,0,0,.84,1.17,2.29,2.29,0,0,0,1.34.41,2.24,2.24,0,0,0,1.71-.71A3.09,3.09,0,0,0,134,193a4.4,4.4,0,0,0-.62-2.39,2,2,0,0,0-1.79-1,2.16,2.16,0,0,0-1.71.78A3.43,3.43,0,0,0,129.22,192.7Z"/><path class="cls-2" d="M138.63,201.68v-.5c.18-.23.52-.6,1-1.1l2-2.08c.16-.17.54-.59,1.14-1.27a10,10,0,0,0,1.07-1.43,5.3,5.3,0,0,0,.57-1.25,4,4,0,0,0,.18-1.15,2.56,2.56,0,0,0-.52-1.62,2.29,2.29,0,0,0-2-.91,3.08,3.08,0,0,0-1.26.23,1.69,1.69,0,0,0-.73.52,8.21,8.21,0,0,0-.54,1.62h-.54a24.36,24.36,0,0,0,.3-2.48,6,6,0,0,1,1-.77,3.54,3.54,0,0,1,.94-.38,5.24,5.24,0,0,1,1.22-.14,4.58,4.58,0,0,1,2,.4,3.15,3.15,0,0,1,1.29,1.19,3.32,3.32,0,0,1,.49,1.79,4.52,4.52,0,0,1-.56,2.13,12.94,12.94,0,0,1-2.29,2.79l-1.54,1.53c-.56.55-1,1-1.27,1.33h4a22.29,22.29,0,0,0,2.33-.12l.06.07a6.22,6.22,0,0,0,0,.8,4.73,4.73,0,0,0,0,.71l-.06.09-1.46-.05-2.45,0-2.64,0C139.62,201.64,139.06,201.66,138.63,201.68Z"/><path class="cls-2" d="M152.47,195.23a4.13,4.13,0,0,1-1.57-1.29,2.87,2.87,0,0,1-.46-1.62,3.09,3.09,0,0,1,1-2.36,3.82,3.82,0,0,1,2.73-1,4.3,4.3,0,0,1,1.73.33,2.54,2.54,0,0,1,1.15,1,2.51,2.51,0,0,1,.38,1.33,2.72,2.72,0,0,1-.23,1.08,3.41,3.41,0,0,1-.77,1,8.21,8.21,0,0,1-1.2.87v.08a10.05,10.05,0,0,1,1.55.85,2.81,2.81,0,0,1,.86,1,2.92,2.92,0,0,1,.31,1.35,4.08,4.08,0,0,1-2.18,3.52,4.55,4.55,0,0,1-2.2.55,4.09,4.09,0,0,1-1.85-.42,3.1,3.1,0,0,1-1.29-1.16,3.23,3.23,0,0,1-.44-1.65,3.29,3.29,0,0,1,.65-2,4.53,4.53,0,0,1,1.8-1.41Zm.73.33a4.45,4.45,0,0,0-1.46,1.32,3.07,3.07,0,0,0-.43,1.67,3.2,3.2,0,0,0,.32,1.46,2.16,2.16,0,0,0,.93,1,2.65,2.65,0,0,0,1.32.34,2.82,2.82,0,0,0,1.37-.35,2.28,2.28,0,0,0,1-1,3,3,0,0,0,.33-1.4,2.2,2.2,0,0,0-.28-1.13,3,3,0,0,0-1-.87A20.38,20.38,0,0,0,153.2,195.56Zm1.37-1.19a4.11,4.11,0,0,0,1.28-1.16,2.51,2.51,0,0,0,.36-1.36,2.64,2.64,0,0,0-.26-1.17,1.83,1.83,0,0,0-.78-.8,2.38,2.38,0,0,0-1.15-.27,2.29,2.29,0,0,0-1.61.56,1.94,1.94,0,0,0-.6,1.47,1.82,1.82,0,0,0,.54,1.4A9.65,9.65,0,0,0,154.57,194.37Z"/><circle class="cls-2" cx="163.53" cy="195.66" r="1.39"/><circle class="cls-2" cx="111.87" cy="195.66" r="1.39"/><path class="cls-3" d="M200.6,146.22v-.06l-23.14,4.25c.29,1.05.62,2.09.91,3.14L198,149.93A3.19,3.19,0,0,0,200.6,146.22Z"/><path class="cls-3" d="M71.31,168.05h20a0,0,0,0,1,0,0v3.25a0,0,0,0,1,0,0h-17a3,3,0,0,1-3-3v-.24a0,0,0,0,1,0,0Z" transform="translate(-29.25 17.43) rotate(-10.38)"/><path class="cls-3" d="M105.74,172.31a11.26,11.26,0,0,1,4.13-20.5,11.62,11.62,0,0,1,3.16-.13,1.4,1.4,0,0,0,1.47-.94c.27-.76,1.75-5,2-5.71.33-1-.36-1.81-1.5-1.6l-7.42,1.35a18.59,18.59,0,0,0-9.24,31.95c-.51,1.46-1.92,5.54-2.36,6.81-.24.67,0,1.16.79,1l5.56-1a1.34,1.34,0,0,0,1.12-1.07c.23-.7,2.25-6.51,2.87-8.24a1.39,1.39,0,0,0-.57-1.92"/><path class="cls-3" d="M118.06,153.47a11.27,11.27,0,0,1-7.29,20.63,1.38,1.38,0,0,0-1.47.94c-.27.76-1.74,5-2,5.7a1.21,1.21,0,0,0,1.5,1.61l7.42-1.36a18.58,18.58,0,0,0,9.24-31.94c.51-1.46,1.92-5.55,2.36-6.81.24-.67,0-1.16-.79-1l-5.56,1a1.34,1.34,0,0,0-1.12,1.07c-.23.69-2.25,6.51-2.87,8.24a1.39,1.39,0,0,0,.57,1.92"/><path class="cls-3" d="M111.8,156.42a1.07,1.07,0,1,1-1.24-.86,1.06,1.06,0,0,1,1.24.86"/><rect class="cls-3" x="106.52" y="167.11" width="12.59" height="1.53" transform="translate(-28.41 23.09) rotate(-10.38)"/><path class="cls-3" d="M104.06,165.73a10.89,10.89,0,0,0,1.45,1.2l.86.64,12.39-2.27.56-.91a10.65,10.65,0,0,0,.93-1.63,3.17,3.17,0,0,0-3.55-4.52l-.12,0-.31-.32a3.19,3.19,0,0,0-3.45-.55,3.43,3.43,0,0,0-1.65,1.46,3.37,3.37,0,0,0-2.06-.78,3.19,3.19,0,0,0-3,1.74c-.07.14-.13.27-.18.4l-.12,0a3.17,3.17,0,0,0-1.72,5.49m6.64-5a8.25,8.25,0,0,1-3.22-.31h0a1.66,1.66,0,0,1,1.58-.84,1.8,1.8,0,0,1,1.64,1.1.43.43,0,0,1,0,.05m4.49-1.72h0a8.34,8.34,0,0,1-2.91,1.43v0a1.81,1.81,0,0,1,1.14-1.61,1.68,1.68,0,0,1,1.78.23m.36,5.34c.51-.79,1.09-1.83,1.23-2.1a3.74,3.74,0,0,0,.57-2.58A1.58,1.58,0,0,1,119,160.9a2.34,2.34,0,0,1-.16,1.26,10.82,10.82,0,0,1-.82,1.42l-.22.36Zm-3-2.41a9.56,9.56,0,0,0,3.39-1.59,3.58,3.58,0,0,1-.39,1.07c-.4.73-1.51,2.54-2,3.3l-.46.09s-.42-2.26-.53-2.87m-1.43,3.23c-.75-.54-2.59-2-2.93-2.26a3.88,3.88,0,0,1-.87-1,9.75,9.75,0,0,0,3.73.29c.12.6.53,2.86.53,2.86Zm-6.53-1.63a1.59,1.59,0,0,1,1.14-1.74,3.34,3.34,0,0,0,1.35,2.13c.48.43,1.23,1.06,2,1.61l-2.27.42-.34-.26a10.22,10.22,0,0,1-1.27-1,2.23,2.23,0,0,1-.59-1.12"/><path class="cls-3" d="M169.33,171.89c-4.17,0-10.41-2.34-11.1-6.15a26,26,0,0,1,1.26-12.89c1.72-4.65,4.44-7.54,7.67-8.13a10.85,10.85,0,0,1,1.93-.16c4.52,0,10,2.58,10.68,6A27.72,27.72,0,0,1,178.48,163c-1.7,5-4.39,8.14-7.56,8.72A8.67,8.67,0,0,1,169.33,171.89Zm1.78-21.68a1.24,1.24,0,0,0-.27,0c-1.32.24-4.29,8.86-3.14,15.12a1.12,1.12,0,0,0,1,.95c1.27-.23,4.55-9.54,3.45-15.52A1.22,1.22,0,0,0,171.11,150.21Z"/><path class="cls-4" d="M169.09,145.06c4.51,0,9.64,2.63,10.19,5.62,1.15,6.33-1.74,19.36-8.45,20.59a8.68,8.68,0,0,1-1.5.12c-4,0-10-2.25-10.61-5.74-1.4-7.65,1.88-19.22,8.53-20.43a10.08,10.08,0,0,1,1.84-.16m-.35,21.75h.13c1.87-.35,4.85-10.44,3.82-16.1a1.67,1.67,0,0,0-1.58-1,2.19,2.19,0,0,0-.36,0c-1.87.35-4.67,9.56-3.54,15.71a1.61,1.61,0,0,0,1.53,1.36m.35-22.75h0a11.88,11.88,0,0,0-2,.17c-3.41.63-6.27,3.62-8,8.45a26.57,26.57,0,0,0-1.3,13.15c.78,4.22,7.35,6.56,11.6,6.56a9.67,9.67,0,0,0,1.68-.14c3.36-.61,6.18-3.83,7.94-9.05a27.71,27.71,0,0,0,1.31-12.7c-.68-3.69-6.46-6.44-11.17-6.44Zm1.88,6.66h.14a.83.83,0,0,1,.61.26c.94,5.38-1.77,13.88-3.05,14.83a.61.61,0,0,1-.48-.53c-1.05-5.71,1.52-13.82,2.78-14.55Zm-2.36,15.12Z"/><path class="cls-3" d="M140.25,175.57c0,.74-1.15,1.51-2,1.67-1.32.24-5.26-.51-5.53-2-.37-2,1.59-28.54,2.28-33.72a1.94,1.94,0,0,1,1.55-1.48c1.21-.22,6,1.62,6.21,2.56a6.81,6.81,0,0,1,0,1.42c-.51,4.7-.79,8.1-.79,8.1s2.94-3.15,5.58-3.64c2.26-.41,6.11,2.35,6.44,4.11.71,3.9-5.6,11-5.6,11,.61,1.13,4.21,4.68,5.26,4.49,1.48-.28,2.83-2.51,4.73-8,0,0,.26-1.07.92-1.2s2.09.53,2.21,1.19a5.74,5.74,0,0,1-.42,2.07c-2,6-4.62,11.7-8.19,12.35s-10.71-6.33-11-7.93a3.36,3.36,0,0,1,.63-2.73c3.74-4.43,4.63-7,4.45-8a1.71,1.71,0,0,0-1.61-1.07c-.61.11-3.56,2-3.83,4.57C140.92,164.36,140.37,173.78,140.25,175.57Z"/></g></g></svg>